<svg width="287" height="80" viewBox="0 0 287 80" fill="none" xmlns="http://www.w3.org/2000/svg">
<path d="M104.48 39.5004V17.2204H96.3203V11.6204H118.96V17.2204H110.84V39.5004H104.48ZM125.039 39.9404C123.092 39.9404 121.346 39.5004 119.799 38.6204C118.279 37.7137 117.079 36.4871 116.199 34.9404C115.319 33.3671 114.879 31.5937 114.879 29.6204C114.879 27.6204 115.319 25.8471 116.199 24.3004C117.079 22.7537 118.279 21.5404 119.799 20.6604C121.346 19.7804 123.092 19.3404 125.039 19.3404C126.986 19.3404 128.719 19.7804 130.239 20.6604C131.759 21.5404 132.959 22.7537 133.839 24.3004C134.719 25.8471 135.159 27.6204 135.159 29.6204C135.159 31.5937 134.719 33.3671 133.839 34.9404C132.959 36.4871 131.759 37.7137 130.239 38.6204C128.719 39.5004 126.986 39.9404 125.039 39.9404ZM125.039 34.6604C125.919 34.6604 126.666 34.4737 127.279 34.1004C127.892 33.7004 128.346 33.1271 128.639 32.3804C128.959 31.6071 129.119 30.6871 129.119 29.6204C129.119 28.5271 128.959 27.6204 128.639 26.9004C128.346 26.1537 127.892 25.5937 127.279 25.2204C126.666 24.8204 125.919 24.6204 125.039 24.6204C124.159 24.6204 123.412 24.8204 122.799 25.2204C122.186 25.5937 121.719 26.1537 121.399 26.9004C121.079 27.6204 120.919 28.5271 120.919 29.6204C120.919 30.6871 121.079 31.6071 121.399 32.3804C121.719 33.1271 122.186 33.7004 122.799 34.1004C123.412 34.4737 124.159 34.6604 125.039 34.6604ZM136.173 47.6604V19.7804H142.173V24.6604L140.933 25.8604C141.279 23.9937 141.799 22.6071 142.493 21.7004C143.213 20.7671 143.999 20.1404 144.853 19.8204C145.733 19.5004 146.573 19.3404 147.373 19.3404C149.079 19.3404 150.533 19.7937 151.733 20.7004C152.933 21.5804 153.839 22.8071 154.453 24.3804C155.093 25.9271 155.413 27.6871 155.413 29.6604C155.413 31.8471 155.053 33.7137 154.333 35.2604C153.613 36.7804 152.639 37.9404 151.413 38.7404C150.213 39.5404 148.866 39.9404 147.373 39.9404C146.466 39.9404 145.559 39.7404 144.653 39.3404C143.773 38.9404 143.013 38.2871 142.373 37.3804C141.733 36.4471 141.306 35.2071 141.093 33.6604L142.173 34.5404V47.6604H136.173ZM145.493 34.4204C146.319 34.4204 147.013 34.2337 147.573 33.8604C148.159 33.4871 148.599 32.9404 148.893 32.2204C149.213 31.5004 149.373 30.6471 149.373 29.6604C149.373 28.6471 149.213 27.7804 148.893 27.0604C148.599 26.3404 148.159 25.7937 147.573 25.4204C147.013 25.0471 146.319 24.8604 145.493 24.8604C144.693 24.8604 143.999 25.0604 143.413 25.4604C142.826 25.8337 142.373 26.3804 142.053 27.1004C141.759 27.7937 141.613 28.6471 141.613 29.6604C141.613 30.6471 141.759 31.5004 142.053 32.2204C142.373 32.9137 142.826 33.4604 143.413 33.8604C143.999 34.2337 144.693 34.4204 145.493 34.4204ZM166.309 40.1004C163.215 40.1004 160.682 39.3004 158.709 37.7004C156.735 36.1004 155.535 33.9671 155.109 31.3004L161.229 29.7804C161.522 31.3804 162.122 32.5804 163.029 33.3804C163.962 34.1537 165.122 34.5404 166.509 34.5404C167.202 34.5404 167.815 34.4337 168.349 34.2204C168.909 34.0071 169.349 33.6871 169.669 33.2604C169.989 32.8337 170.149 32.3271 170.149 31.7404C170.149 31.2071 169.989 30.7404 169.669 30.3404C169.349 29.9137 168.829 29.5137 168.109 29.1404C167.389 28.7404 166.429 28.3137 165.229 27.8604C163.335 27.1137 161.789 26.3271 160.589 25.5004C159.389 24.6471 158.509 23.6737 157.949 22.5804C157.389 21.4871 157.109 20.2337 157.109 18.8204C157.109 17.2737 157.482 15.9137 158.229 14.7404C159.002 13.5404 160.069 12.6071 161.429 11.9404C162.815 11.2471 164.415 10.9004 166.229 10.9004C168.175 10.9004 169.895 11.3537 171.389 12.2604C172.909 13.1404 174.122 14.4871 175.029 16.3004L170.029 19.3404C169.522 18.4071 168.922 17.7004 168.229 17.2204C167.562 16.7137 166.829 16.4604 166.029 16.4604C165.549 16.4604 165.109 16.5537 164.709 16.7404C164.309 16.9271 163.989 17.1937 163.749 17.5404C163.509 17.8604 163.389 18.2471 163.389 18.7004C163.389 19.1537 163.522 19.5804 163.789 19.9804C164.082 20.3804 164.602 20.7937 165.349 21.2204C166.095 21.6204 167.135 22.0737 168.469 22.5804C170.255 23.2471 171.722 23.9804 172.869 24.7804C174.042 25.5804 174.922 26.5137 175.509 27.5804C176.095 28.6204 176.389 29.8737 176.389 31.3404C176.389 33.0471 175.962 34.5671 175.109 35.9004C174.282 37.2071 173.109 38.2337 171.589 38.9804C170.095 39.7271 168.335 40.1004 166.309 40.1004ZM184.61 39.9404C183.49 39.9404 182.423 39.7271 181.41 39.3004C180.396 38.8737 179.57 38.1804 178.93 37.2204C178.316 36.2337 178.01 34.9004 178.01 33.2204V15.6604L184.09 12.4204V31.5004C184.09 32.6737 184.236 33.5537 184.53 34.1404C184.823 34.7271 185.41 35.0204 186.29 35.0204C186.556 35.0204 186.85 34.9937 187.17 34.9404C187.49 34.8871 187.836 34.8071 188.21 34.7004V39.3004C187.623 39.5137 187.036 39.6737 186.45 39.7804C185.863 39.8871 185.25 39.9404 184.61 39.9404ZM174.73 24.4604V19.7804H188.21V24.4604H174.73ZM201.724 39.5004L201.244 37.1804V26.9804C201.244 26.0471 200.911 25.3804 200.244 24.9804C199.577 24.5804 198.751 24.3804 197.764 24.3804C196.724 24.3804 195.617 24.5804 194.444 24.9804C193.271 25.3537 192.284 25.8204 191.484 26.3804L188.924 22.1404C190.497 21.1004 192.017 20.3804 193.484 19.9804C194.977 19.5537 196.577 19.3404 198.284 19.3404C201.084 19.3404 203.271 20.0337 204.844 21.4204C206.444 22.7804 207.244 24.6337 207.244 26.9804V39.5004H201.724ZM196.164 39.9404C194.751 39.9404 193.457 39.6737 192.284 39.1404C191.137 38.5804 190.217 37.7937 189.524 36.7804C188.857 35.7671 188.524 34.5937 188.524 33.2604C188.524 32.1137 188.764 31.1137 189.244 30.2604C189.751 29.4071 190.417 28.7537 191.244 28.3004C191.857 27.9537 192.551 27.7004 193.324 27.5404C194.097 27.3804 194.924 27.3004 195.804 27.3004H201.724V31.7404H196.684C196.364 31.7404 196.071 31.7671 195.804 31.8204C195.564 31.8737 195.351 31.9671 195.164 32.1004C194.977 32.2337 194.831 32.4071 194.724 32.6204C194.617 32.8071 194.564 33.0204 194.564 33.2604C194.564 33.8204 194.791 34.2737 195.244 34.6204C195.724 34.9404 196.351 35.1004 197.124 35.1004C197.871 35.1004 198.551 34.9537 199.164 34.6604C199.804 34.3404 200.311 33.9137 200.684 33.3804C201.057 32.8471 201.244 32.2337 201.244 31.5404L202.524 34.9404C202.017 36.3004 201.404 37.3404 200.684 38.0604C199.991 38.7804 199.244 39.2737 198.444 39.5404C197.671 39.8071 196.911 39.9404 196.164 39.9404ZM217.036 39.9404C215.916 39.9404 214.85 39.7271 213.836 39.3004C212.823 38.8737 211.996 38.1804 211.356 37.2204C210.743 36.2337 210.436 34.9004 210.436 33.2204V15.6604L216.516 12.4204V31.5004C216.516 32.6737 216.663 33.5537 216.956 34.1404C217.25 34.7271 217.836 35.0204 218.716 35.0204C218.983 35.0204 219.276 34.9937 219.596 34.9404C219.916 34.8871 220.263 34.8071 220.636 34.7004V39.3004C220.05 39.5137 219.463 39.6737 218.876 39.7804C218.29 39.8871 217.676 39.9404 217.036 39.9404ZM207.156 24.4604V19.7804H220.636V24.4604H207.156ZM228.791 39.9404C227.244 39.9404 225.911 39.7271 224.791 39.3004C223.671 38.8471 222.737 38.3137 221.991 37.7004C221.244 37.0871 220.631 36.5404 220.151 36.0604L224.231 32.4604C224.684 33.0204 225.271 33.6071 225.991 34.2204C226.737 34.8337 227.684 35.1404 228.831 35.1404C229.631 35.1404 230.244 34.9937 230.671 34.7004C231.097 34.3804 231.311 34.0471 231.311 33.7004C231.311 33.3804 231.164 33.1137 230.871 32.9004C230.577 32.6871 230.191 32.5004 229.711 32.3404C229.231 32.1537 228.684 31.9804 228.071 31.8204C227.324 31.6071 226.537 31.3671 225.711 31.1004C224.911 30.8071 224.151 30.4337 223.431 29.9804C222.737 29.5004 222.164 28.9004 221.711 28.1804C221.284 27.4604 221.071 26.5537 221.071 25.4604C221.071 23.6204 221.777 22.1404 223.191 21.0204C224.631 19.9004 226.524 19.3404 228.871 19.3404C230.497 19.3404 231.964 19.6471 233.271 20.2604C234.604 20.8737 235.657 21.7537 236.431 22.9004L232.751 25.8604C232.271 25.2204 231.671 24.7137 230.951 24.3404C230.231 23.9671 229.484 23.7804 228.711 23.7804C228.124 23.7804 227.644 23.8871 227.271 24.1004C226.897 24.3137 226.711 24.5804 226.711 24.9004C226.711 25.1137 226.791 25.3004 226.951 25.4604C227.137 25.6204 227.457 25.7804 227.911 25.9404C228.364 26.0737 228.991 26.2471 229.791 26.4604C230.564 26.6471 231.377 26.8737 232.231 27.1404C233.084 27.4071 233.884 27.7804 234.631 28.2604C235.404 28.7137 236.031 29.3271 236.511 30.1004C236.991 30.8737 237.231 31.8471 237.231 33.0204C237.231 34.3804 236.871 35.5804 236.151 36.6204C235.457 37.6604 234.471 38.4737 233.191 39.0604C231.937 39.6471 230.471 39.9404 228.791 39.9404Z" fill="#8A9DE4"/>
<path d="M97.2061 68.5V55.954H99.5281V60.976H104.946V55.954H107.268V68.5H104.946V63.118H99.5281V68.5H97.2061ZM109.56 68.5V59.626H111.792V68.5H109.56ZM109.488 58.258V55.954H111.882V58.258H109.488ZM117.069 68.68C116.409 68.68 115.833 68.584 115.341 68.392C114.849 68.2 114.429 67.96 114.081 67.672C113.745 67.384 113.475 67.108 113.271 66.844L114.801 65.512C115.005 65.848 115.293 66.16 115.665 66.448C116.049 66.724 116.523 66.862 117.087 66.862C117.531 66.862 117.873 66.778 118.113 66.61C118.365 66.43 118.491 66.208 118.491 65.944C118.491 65.728 118.413 65.554 118.257 65.422C118.101 65.278 117.891 65.164 117.627 65.08C117.363 64.984 117.069 64.894 116.745 64.81C116.409 64.714 116.061 64.606 115.701 64.486C115.341 64.366 115.011 64.21 114.711 64.018C114.411 63.814 114.165 63.556 113.973 63.244C113.793 62.932 113.703 62.542 113.703 62.074C113.703 61.294 114.009 60.664 114.621 60.184C115.233 59.692 116.043 59.446 117.051 59.446C117.759 59.446 118.401 59.59 118.977 59.878C119.553 60.154 120.009 60.556 120.345 61.084L118.959 62.182C118.743 61.834 118.455 61.576 118.095 61.408C117.747 61.228 117.375 61.138 116.979 61.138C116.631 61.138 116.343 61.204 116.115 61.336C115.899 61.468 115.791 61.648 115.791 61.876C115.791 62.032 115.839 62.164 115.935 62.272C116.043 62.38 116.211 62.476 116.439 62.56C116.679 62.632 116.991 62.716 117.375 62.812C117.735 62.896 118.107 62.998 118.491 63.118C118.875 63.238 119.235 63.4 119.571 63.604C119.907 63.808 120.177 64.078 120.381 64.414C120.585 64.75 120.687 65.176 120.687 65.692C120.687 66.28 120.537 66.802 120.237 67.258C119.937 67.702 119.517 68.05 118.977 68.302C118.437 68.554 117.801 68.68 117.069 68.68ZM125.865 68.68C125.385 68.68 124.941 68.59 124.533 68.41C124.125 68.23 123.795 67.936 123.543 67.528C123.303 67.12 123.183 66.574 123.183 65.89V57.556L125.451 56.35V65.278C125.451 65.794 125.517 66.184 125.649 66.448C125.793 66.712 126.069 66.844 126.477 66.844C126.597 66.844 126.729 66.832 126.873 66.808C127.029 66.784 127.197 66.748 127.377 66.7V68.41C127.125 68.506 126.873 68.572 126.621 68.608C126.369 68.656 126.117 68.68 125.865 68.68ZM121.563 61.372V59.626H127.377V61.372H121.563ZM132.982 68.68C132.118 68.68 131.35 68.482 130.678 68.086C130.006 67.69 129.472 67.144 129.076 66.448C128.692 65.74 128.5 64.942 128.5 64.054C128.5 63.154 128.692 62.362 129.076 61.678C129.46 60.982 129.988 60.436 130.66 60.04C131.344 59.644 132.118 59.446 132.982 59.446C133.834 59.446 134.596 59.644 135.268 60.04C135.94 60.436 136.468 60.982 136.852 61.678C137.236 62.362 137.428 63.154 137.428 64.054C137.428 64.942 137.236 65.734 136.852 66.43C136.468 67.126 135.94 67.678 135.268 68.086C134.596 68.482 133.834 68.68 132.982 68.68ZM132.982 66.718C133.438 66.718 133.828 66.61 134.152 66.394C134.488 66.178 134.74 65.872 134.908 65.476C135.088 65.08 135.178 64.606 135.178 64.054C135.178 63.49 135.088 63.016 134.908 62.632C134.74 62.236 134.488 61.936 134.152 61.732C133.828 61.516 133.438 61.408 132.982 61.408C132.514 61.408 132.112 61.516 131.776 61.732C131.44 61.936 131.182 62.236 131.002 62.632C130.822 63.016 130.732 63.49 130.732 64.054C130.732 64.606 130.822 65.08 131.002 65.476C131.182 65.872 131.44 66.178 131.776 66.394C132.112 66.61 132.514 66.718 132.982 66.718ZM139.215 68.5V59.626H141.465V62.038L141.123 62.074C141.159 61.558 141.315 61.102 141.591 60.706C141.867 60.31 142.203 60.004 142.599 59.788C143.007 59.56 143.421 59.446 143.841 59.446C144.141 59.446 144.423 59.488 144.687 59.572C144.963 59.644 145.245 59.77 145.533 59.95L144.453 61.966C144.321 61.894 144.153 61.828 143.949 61.768C143.745 61.708 143.541 61.678 143.337 61.678C143.097 61.678 142.863 61.72 142.635 61.804C142.419 61.888 142.221 62.02 142.041 62.2C141.873 62.38 141.735 62.62 141.627 62.92C141.579 63.088 141.537 63.304 141.501 63.568C141.477 63.82 141.465 64.192 141.465 64.684V68.5H139.215ZM146.861 68.5V59.626H149.093V68.5H146.861ZM146.789 58.258V55.954H149.183V58.258H146.789ZM155.197 68.68C154.477 68.68 153.847 68.554 153.307 68.302C152.779 68.038 152.329 67.69 151.957 67.258C151.597 66.826 151.327 66.334 151.147 65.782C150.967 65.23 150.877 64.654 150.877 64.054C150.877 63.466 150.967 62.896 151.147 62.344C151.327 61.792 151.597 61.3 151.957 60.868C152.329 60.436 152.779 60.094 153.307 59.842C153.847 59.578 154.477 59.446 155.197 59.446C156.097 59.446 156.877 59.662 157.537 60.094C158.197 60.526 158.689 61.18 159.013 62.056L157.069 62.83C156.925 62.41 156.703 62.068 156.403 61.804C156.115 61.528 155.713 61.39 155.197 61.39C154.717 61.39 154.321 61.522 154.009 61.786C153.697 62.038 153.469 62.368 153.325 62.776C153.181 63.184 153.109 63.61 153.109 64.054C153.109 64.498 153.181 64.93 153.325 65.35C153.469 65.758 153.697 66.094 154.009 66.358C154.321 66.61 154.717 66.736 155.197 66.736C155.713 66.736 156.115 66.604 156.403 66.34C156.703 66.064 156.925 65.71 157.069 65.278L159.013 66.052C158.689 66.94 158.197 67.6 157.537 68.032C156.877 68.464 156.097 68.68 155.197 68.68ZM166.384 68.5L166.204 67.168V62.902C166.204 62.374 166.036 61.984 165.7 61.732C165.376 61.468 164.932 61.336 164.368 61.336C163.9 61.336 163.42 61.432 162.928 61.624C162.448 61.804 162.022 62.062 161.65 62.398L160.516 60.868C161.14 60.364 161.776 60.004 162.424 59.788C163.084 59.56 163.792 59.446 164.548 59.446C165.772 59.446 166.726 59.752 167.41 60.364C168.094 60.976 168.436 61.822 168.436 62.902V68.5H166.384ZM163.702 68.68C163.054 68.68 162.472 68.56 161.956 68.32C161.452 68.08 161.05 67.738 160.75 67.294C160.462 66.85 160.318 66.34 160.318 65.764C160.318 65.248 160.42 64.81 160.624 64.45C160.84 64.078 161.122 63.796 161.47 63.604C161.77 63.424 162.1 63.298 162.46 63.226C162.832 63.154 163.228 63.118 163.648 63.118H166.402V64.774H163.972C163.78 64.774 163.588 64.792 163.396 64.828C163.216 64.852 163.06 64.918 162.928 65.026C162.808 65.11 162.718 65.218 162.658 65.35C162.598 65.47 162.568 65.608 162.568 65.764C162.568 66.1 162.7 66.37 162.964 66.574C163.228 66.778 163.582 66.88 164.026 66.88C164.422 66.88 164.782 66.796 165.106 66.628C165.442 66.448 165.706 66.208 165.898 65.908C166.102 65.596 166.204 65.242 166.204 64.846L166.798 66.034C166.642 66.658 166.402 67.168 166.078 67.564C165.766 67.948 165.406 68.23 164.998 68.41C164.59 68.59 164.158 68.68 163.702 68.68ZM172.592 68.68C171.98 68.68 171.476 68.494 171.08 68.122C170.684 67.75 170.486 67.162 170.486 66.358V55.954H172.7V65.926C172.7 66.178 172.76 66.358 172.88 66.466C173 66.562 173.156 66.61 173.348 66.61C173.444 66.61 173.546 66.604 173.654 66.592C173.762 66.568 173.876 66.538 173.996 66.502V68.41C173.744 68.506 173.492 68.572 173.24 68.608C173 68.656 172.784 68.68 172.592 68.68ZM180.315 68.5V55.954H184.725C185.973 55.954 186.951 56.236 187.659 56.8C188.367 57.352 188.721 58.126 188.721 59.122C188.721 59.698 188.601 60.214 188.361 60.67C188.121 61.114 187.785 61.462 187.353 61.714C188.049 61.978 188.565 62.374 188.901 62.902C189.237 63.418 189.405 64.06 189.405 64.828C189.405 65.98 189.039 66.88 188.307 67.528C187.587 68.176 186.585 68.5 185.301 68.5H180.315ZM182.637 66.358H185.121C186.429 66.358 187.083 65.812 187.083 64.72C187.083 64.192 186.921 63.784 186.597 63.496C186.285 63.208 185.835 63.064 185.247 63.064H182.637V66.358ZM182.637 60.994H184.833C185.313 60.994 185.691 60.862 185.967 60.598C186.255 60.322 186.399 59.95 186.399 59.482C186.399 59.038 186.255 58.696 185.967 58.456C185.679 58.216 185.265 58.096 184.725 58.096H182.637V60.994ZM195.279 68.68C194.415 68.68 193.647 68.482 192.975 68.086C192.303 67.69 191.769 67.144 191.373 66.448C190.989 65.74 190.797 64.942 190.797 64.054C190.797 63.154 190.989 62.362 191.373 61.678C191.757 60.982 192.285 60.436 192.957 60.04C193.641 59.644 194.415 59.446 195.279 59.446C196.131 59.446 196.893 59.644 197.565 60.04C198.237 60.436 198.765 60.982 199.149 61.678C199.533 62.362 199.725 63.154 199.725 64.054C199.725 64.942 199.533 65.734 199.149 66.43C198.765 67.126 198.237 67.678 197.565 68.086C196.893 68.482 196.131 68.68 195.279 68.68ZM195.279 66.718C195.735 66.718 196.125 66.61 196.449 66.394C196.785 66.178 197.037 65.872 197.205 65.476C197.385 65.08 197.475 64.606 197.475 64.054C197.475 63.49 197.385 63.016 197.205 62.632C197.037 62.236 196.785 61.936 196.449 61.732C196.125 61.516 195.735 61.408 195.279 61.408C194.811 61.408 194.409 61.516 194.073 61.732C193.737 61.936 193.479 62.236 193.299 62.632C193.119 63.016 193.029 63.49 193.029 64.054C193.029 64.606 193.119 65.08 193.299 65.476C193.479 65.872 193.737 66.178 194.073 66.394C194.409 66.61 194.811 66.718 195.279 66.718ZM204.826 68.68C204.346 68.68 203.902 68.59 203.494 68.41C203.086 68.23 202.756 67.936 202.504 67.528C202.264 67.12 202.144 66.574 202.144 65.89V57.556L204.412 56.35V65.278C204.412 65.794 204.478 66.184 204.61 66.448C204.754 66.712 205.03 66.844 205.438 66.844C205.558 66.844 205.69 66.832 205.834 66.808C205.99 66.784 206.158 66.748 206.338 66.7V68.41C206.086 68.506 205.834 68.572 205.582 68.608C205.33 68.656 205.078 68.68 204.826 68.68ZM200.524 61.372V59.626H206.338V61.372H200.524ZM216.975 68.734C215.643 68.734 214.545 68.386 213.681 67.69C212.829 66.994 212.313 66.07 212.133 64.918L214.401 64.36C214.533 65.128 214.833 65.704 215.301 66.088C215.781 66.472 216.369 66.664 217.065 66.664C217.437 66.664 217.767 66.604 218.055 66.484C218.355 66.352 218.589 66.166 218.757 65.926C218.937 65.674 219.027 65.38 219.027 65.044C219.027 64.732 218.937 64.462 218.757 64.234C218.577 64.006 218.301 63.796 217.929 63.604C217.569 63.412 217.113 63.214 216.561 63.01C215.769 62.698 215.103 62.368 214.563 62.02C214.035 61.66 213.639 61.246 213.375 60.778C213.111 60.31 212.979 59.758 212.979 59.122C212.979 58.45 213.141 57.856 213.465 57.34C213.801 56.824 214.263 56.416 214.851 56.116C215.451 55.816 216.147 55.666 216.939 55.666C217.779 55.666 218.523 55.864 219.171 56.26C219.831 56.644 220.359 57.22 220.755 57.988L218.901 59.122C218.649 58.666 218.349 58.324 218.001 58.096C217.665 57.856 217.287 57.736 216.867 57.736C216.567 57.736 216.297 57.796 216.057 57.916C215.829 58.024 215.643 58.18 215.499 58.384C215.367 58.576 215.301 58.804 215.301 59.068C215.301 59.344 215.379 59.59 215.535 59.806C215.703 60.022 215.967 60.232 216.327 60.436C216.699 60.628 217.179 60.832 217.767 61.048C218.547 61.336 219.195 61.654 219.711 62.002C220.239 62.35 220.641 62.758 220.917 63.226C221.193 63.682 221.331 64.24 221.331 64.9C221.331 65.644 221.145 66.31 220.773 66.898C220.413 67.474 219.909 67.924 219.261 68.248C218.613 68.572 217.851 68.734 216.975 68.734ZM226.007 68.68C225.527 68.68 225.083 68.59 224.675 68.41C224.267 68.23 223.937 67.936 223.685 67.528C223.445 67.12 223.325 66.574 223.325 65.89V57.556L225.593 56.35V65.278C225.593 65.794 225.659 66.184 225.791 66.448C225.935 66.712 226.211 66.844 226.619 66.844C226.739 66.844 226.871 66.832 227.015 66.808C227.171 66.784 227.339 66.748 227.519 66.7V68.41C227.267 68.506 227.015 68.572 226.763 68.608C226.511 68.656 226.259 68.68 226.007 68.68ZM221.705 61.372V59.626H227.519V61.372H221.705ZM234.921 68.5L234.741 67.168V62.902C234.741 62.374 234.573 61.984 234.237 61.732C233.913 61.468 233.469 61.336 232.905 61.336C232.437 61.336 231.957 61.432 231.465 61.624C230.985 61.804 230.559 62.062 230.187 62.398L229.053 60.868C229.677 60.364 230.313 60.004 230.961 59.788C231.621 59.56 232.329 59.446 233.085 59.446C234.309 59.446 235.263 59.752 235.947 60.364C236.631 60.976 236.973 61.822 236.973 62.902V68.5H234.921ZM232.239 68.68C231.591 68.68 231.009 68.56 230.493 68.32C229.989 68.08 229.587 67.738 229.287 67.294C228.999 66.85 228.855 66.34 228.855 65.764C228.855 65.248 228.957 64.81 229.161 64.45C229.377 64.078 229.659 63.796 230.007 63.604C230.307 63.424 230.637 63.298 230.997 63.226C231.369 63.154 231.765 63.118 232.185 63.118H234.939V64.774H232.509C232.317 64.774 232.125 64.792 231.933 64.828C231.753 64.852 231.597 64.918 231.465 65.026C231.345 65.11 231.255 65.218 231.195 65.35C231.135 65.47 231.105 65.608 231.105 65.764C231.105 66.1 231.237 66.37 231.501 66.574C231.765 66.778 232.119 66.88 232.563 66.88C232.959 66.88 233.319 66.796 233.643 66.628C233.979 66.448 234.243 66.208 234.435 65.908C234.639 65.596 234.741 65.242 234.741 64.846L235.335 66.034C235.179 66.658 234.939 67.168 234.615 67.564C234.303 67.948 233.943 68.23 233.535 68.41C233.127 68.59 232.695 68.68 232.239 68.68ZM242.443 68.68C241.963 68.68 241.519 68.59 241.111 68.41C240.703 68.23 240.373 67.936 240.121 67.528C239.881 67.12 239.761 66.574 239.761 65.89V57.556L242.029 56.35V65.278C242.029 65.794 242.095 66.184 242.227 66.448C242.371 66.712 242.647 66.844 243.055 66.844C243.175 66.844 243.307 66.832 243.451 66.808C243.607 66.784 243.775 66.748 243.955 66.7V68.41C243.703 68.506 243.451 68.572 243.199 68.608C242.947 68.656 242.695 68.68 242.443 68.68ZM238.141 61.372V59.626H243.955V61.372H238.141ZM245.65 68.5V59.626H247.882V68.5H245.65ZM245.578 58.258V55.954H247.972V58.258H245.578ZM253.158 68.68C252.498 68.68 251.922 68.584 251.43 68.392C250.938 68.2 250.518 67.96 250.17 67.672C249.834 67.384 249.564 67.108 249.36 66.844L250.89 65.512C251.094 65.848 251.382 66.16 251.754 66.448C252.138 66.724 252.612 66.862 253.176 66.862C253.62 66.862 253.962 66.778 254.202 66.61C254.454 66.43 254.58 66.208 254.58 65.944C254.58 65.728 254.502 65.554 254.346 65.422C254.19 65.278 253.98 65.164 253.716 65.08C253.452 64.984 253.158 64.894 252.834 64.81C252.498 64.714 252.15 64.606 251.79 64.486C251.43 64.366 251.1 64.21 250.8 64.018C250.5 63.814 250.254 63.556 250.062 63.244C249.882 62.932 249.792 62.542 249.792 62.074C249.792 61.294 250.098 60.664 250.71 60.184C251.322 59.692 252.132 59.446 253.14 59.446C253.848 59.446 254.49 59.59 255.066 59.878C255.642 60.154 256.098 60.556 256.434 61.084L255.048 62.182C254.832 61.834 254.544 61.576 254.184 61.408C253.836 61.228 253.464 61.138 253.068 61.138C252.72 61.138 252.432 61.204 252.204 61.336C251.988 61.468 251.88 61.648 251.88 61.876C251.88 62.032 251.928 62.164 252.024 62.272C252.132 62.38 252.3 62.476 252.528 62.56C252.768 62.632 253.08 62.716 253.464 62.812C253.824 62.896 254.196 62.998 254.58 63.118C254.964 63.238 255.324 63.4 255.66 63.604C255.996 63.808 256.266 64.078 256.47 64.414C256.674 64.75 256.776 65.176 256.776 65.692C256.776 66.28 256.626 66.802 256.326 67.258C256.026 67.702 255.606 68.05 255.066 68.302C254.526 68.554 253.89 68.68 253.158 68.68ZM261.955 68.68C261.475 68.68 261.031 68.59 260.623 68.41C260.215 68.23 259.885 67.936 259.633 67.528C259.393 67.12 259.273 66.574 259.273 65.89V57.556L261.541 56.35V65.278C261.541 65.794 261.607 66.184 261.739 66.448C261.883 66.712 262.159 66.844 262.567 66.844C262.687 66.844 262.819 66.832 262.963 66.808C263.119 66.784 263.287 66.748 263.467 66.7V68.41C263.215 68.506 262.963 68.572 262.711 68.608C262.459 68.656 262.207 68.68 261.955 68.68ZM257.653 61.372V59.626H263.467V61.372H257.653ZM265.162 68.5V59.626H267.394V68.5H265.162ZM265.09 58.258V55.954H267.484V58.258H265.09ZM273.498 68.68C272.778 68.68 272.148 68.554 271.608 68.302C271.08 68.038 270.63 67.69 270.258 67.258C269.898 66.826 269.628 66.334 269.448 65.782C269.268 65.23 269.178 64.654 269.178 64.054C269.178 63.466 269.268 62.896 269.448 62.344C269.628 61.792 269.898 61.3 270.258 60.868C270.63 60.436 271.08 60.094 271.608 59.842C272.148 59.578 272.778 59.446 273.498 59.446C274.398 59.446 275.178 59.662 275.838 60.094C276.498 60.526 276.99 61.18 277.314 62.056L275.37 62.83C275.226 62.41 275.004 62.068 274.704 61.804C274.416 61.528 274.014 61.39 273.498 61.39C273.018 61.39 272.622 61.522 272.31 61.786C271.998 62.038 271.77 62.368 271.626 62.776C271.482 63.184 271.41 63.61 271.41 64.054C271.41 64.498 271.482 64.93 271.626 65.35C271.77 65.758 271.998 66.094 272.31 66.358C272.622 66.61 273.018 66.736 273.498 66.736C274.014 66.736 274.416 66.604 274.704 66.34C275.004 66.064 275.226 65.71 275.37 65.278L277.314 66.052C276.99 66.94 276.498 67.6 275.838 68.032C275.178 68.464 274.398 68.68 273.498 68.68ZM282.074 68.68C281.414 68.68 280.838 68.584 280.346 68.392C279.854 68.2 279.434 67.96 279.086 67.672C278.75 67.384 278.48 67.108 278.276 66.844L279.806 65.512C280.01 65.848 280.298 66.16 280.67 66.448C281.054 66.724 281.528 66.862 282.092 66.862C282.536 66.862 282.878 66.778 283.118 66.61C283.37 66.43 283.496 66.208 283.496 65.944C283.496 65.728 283.418 65.554 283.262 65.422C283.106 65.278 282.896 65.164 282.632 65.08C282.368 64.984 282.074 64.894 281.75 64.81C281.414 64.714 281.066 64.606 280.706 64.486C280.346 64.366 280.016 64.21 279.716 64.018C279.416 63.814 279.17 63.556 278.978 63.244C278.798 62.932 278.708 62.542 278.708 62.074C278.708 61.294 279.014 60.664 279.626 60.184C280.238 59.692 281.048 59.446 282.056 59.446C282.764 59.446 283.406 59.59 283.982 59.878C284.558 60.154 285.014 60.556 285.35 61.084L283.964 62.182C283.748 61.834 283.46 61.576 283.1 61.408C282.752 61.228 282.38 61.138 281.984 61.138C281.636 61.138 281.348 61.204 281.12 61.336C280.904 61.468 280.796 61.648 280.796 61.876C280.796 62.032 280.844 62.164 280.94 62.272C281.048 62.38 281.216 62.476 281.444 62.56C281.684 62.632 281.996 62.716 282.38 62.812C282.74 62.896 283.112 62.998 283.496 63.118C283.88 63.238 284.24 63.4 284.576 63.604C284.912 63.808 285.182 64.078 285.386 64.414C285.59 64.75 285.692 65.176 285.692 65.692C285.692 66.28 285.542 66.802 285.242 67.258C284.942 67.702 284.522 68.05 283.982 68.302C283.442 68.554 282.806 68.68 282.074 68.68Z" fill="#636C79"/>
<g clip-path="url(#clip0_76_75)">
<path fill-rule="evenodd" clip-rule="evenodd" d="M15.1113 46.628V48.9022L29.3336 34.6799V34.6673H27.072L15.1113 46.628ZM32.8891 32.8895H34.2356L40.4315 39.0856L46.6276 32.8895H47.1113V34.8085L40.0002 41.7784L32.8891 34.6775V32.8895ZM32.8891 39.1219V64.8895H47.1113V39.2398L40.0002 46.2229L32.8891 39.1219ZM50.6669 35.7482V64.8895C58.5216 64.8895 64.8891 58.5221 64.8891 50.6673V29.334H57.1986L50.6669 35.7482ZM52.6966 29.334L50.6669 31.3233V29.334H52.6966ZM29.3336 39.1244L15.3244 53.1336C16.4921 59.8127 22.32 64.8895 29.3336 64.8895V39.1244Z" fill="#8A9DE4"/>
<path fill-rule="evenodd" clip-rule="evenodd" d="M29.3333 8C17.5513 8 8 17.5513 8 29.3333V50.6667C8 62.4487 17.5513 72 29.3333 72H50.6667C62.4487 72 72 62.4487 72 50.6667V8H29.3333ZM29.3333 11.5556C19.5149 11.5556 11.5556 19.5149 11.5556 29.3333V50.6667C11.5556 60.485 19.5149 68.4444 29.3333 68.4444H50.6667C60.485 68.4444 68.4444 60.485 68.4444 50.6667V11.5556H29.3333Z" fill="#8A9DE4"/>
<path d="M31.1113 32.8898L15.1113 48.8898V44.4453L31.1113 28.4453L40.0002 37.3216L61.7654 15.9883L62.8765 17.0994L63.9876 18.2105L40.0002 41.766L31.1113 32.8898Z" fill="#8A9DE4"/>
<path d="M64.8889 15.1113H56L64.8889 24.0002V15.1113Z" fill="#8A9DE4"/>
</g>
<defs>
<clipPath id="clip0_76_75">
<rect width="64" height="64" fill="white" transform="translate(8 8)"/>
</clipPath>
</defs>
</svg>
